<?xml version="1.0" encoding="iso-8859-1"?>
<!-- Uploaded to: SVG Repo, www.svgrepo.com, Generator: SVG Repo Mixer Tools -->
<svg fill="#000000" height="800px" width="800px" version="1.1" id="Layer_1" xmlns="http://www.w3.org/2000/svg" xmlns:xlink="http://www.w3.org/1999/xlink" 
	 viewBox="0 0 469.333 469.333" xml:space="preserve">
<g>
	<g>
		<path d="M181.333,106.667h-10.667V85.333c0-5.899-4.779-10.667-10.667-10.667h-10.667v-64C149.333,4.768,144.555,0,138.667,0
			S128,4.768,128,10.667v64h-10.667c-5.888,0-10.667,4.768-10.667,10.667v21.333H96c-5.888,0-10.667,4.768-10.667,10.667V256
			v138.667c0,5.899,4.779,10.667,10.667,10.667h10.667V448H96c-5.888,0-10.667,4.768-10.667,10.667S90.112,469.333,96,469.333
			h21.333H160h21.333c5.888,0,10.667-4.768,10.667-10.667S187.221,448,181.333,448h-10.667v-42.667h10.667
			c5.888,0,10.667-4.768,10.667-10.667V256V117.333C192,111.435,187.221,106.667,181.333,106.667z M128,96h21.333v10.667H128V96z
			 M149.333,448H128v-42.667h21.333V448z M170.667,384H160h-42.667h-10.667v-32H128c5.888,0,10.667-4.768,10.667-10.667
			s-4.779-10.667-10.667-10.667h-21.333v-21.333H128c5.888,0,10.667-4.768,10.667-10.667S133.888,288,128,288h-21.333v-21.333H128
			h42.667V384z M170.667,245.333H128h-21.333V224H128c5.888,0,10.667-4.768,10.667-10.667c0-5.899-4.779-10.667-10.667-10.667
			h-21.333v-21.333H128c5.888,0,10.667-4.768,10.667-10.667S133.888,160,128,160h-21.333v-32h10.667H160h10.667V245.333z"/>
	</g>
</g>
<g>
	<g>
		<path d="M437.333,96c-17.643,0-32,14.357-32,32c0,17.643,14.357,32,32,32s32-14.357,32-32C469.333,110.357,454.976,96,437.333,96z
			 M437.333,138.667c-5.888,0-10.667-4.779-10.667-10.667c0-5.888,4.779-10.667,10.667-10.667S448,122.112,448,128
			C448,133.888,443.221,138.667,437.333,138.667z"/>
	</g>
</g>
<g>
	<g>
		<path d="M32,234.667c-17.643,0-32,14.357-32,32s14.357,32,32,32c17.643,0,32-14.357,32-32S49.643,234.667,32,234.667z M32,277.333
			c-5.877,0-10.667-4.779-10.667-10.667S26.123,256,32,256c5.877,0,10.667,4.779,10.667,10.667S37.877,277.333,32,277.333z"/>
	</g>
</g>
<g>
	<g>
		<path d="M234.667,0c-17.643,0-32,14.357-32,32c0,17.643,14.357,32,32,32s32-14.357,32-32C266.667,14.357,252.309,0,234.667,0z
			 M234.667,42.667C228.789,42.667,224,37.888,224,32s4.789-10.667,10.667-10.667S245.333,26.112,245.333,32
			S240.544,42.667,234.667,42.667z"/>
	</g>
</g>
<g>
	<g>
		<path d="M437.333,384c-17.643,0-32,14.357-32,32c0,17.643,14.357,32,32,32s32-14.357,32-32
			C469.333,398.357,454.976,384,437.333,384z M437.333,426.667c-5.888,0-10.667-4.779-10.667-10.667
			c0-5.888,4.779-10.667,10.667-10.667S448,410.112,448,416C448,421.888,443.221,426.667,437.333,426.667z"/>
	</g>
</g>
<g>
	<g>
		<path d="M341.333,232.629V192v-32c0-17.643-14.357-32-32-32c-17.643,0-32,14.357-32,32v32v40.629
			c-19.648,11.349-32,32.384-32,55.371v42.667v128c0,5.899,4.768,10.667,10.667,10.667h106.667c5.899,0,10.667-4.768,10.667-10.667
			v-128V288C373.333,265.013,360.981,243.979,341.333,232.629z M298.667,160c0-5.888,4.779-10.667,10.667-10.667
			S320,154.112,320,160v21.333h-21.333V160z M352,448h-85.333V341.333h7.595C284.8,348.32,296.853,352,309.333,352
			c12.48,0,24.533-3.68,35.072-10.667H352V448z M352,320h-10.955c-2.293,0-4.533,0.736-6.368,2.112
			c-15.04,11.189-35.648,11.189-50.688,0c-1.835-1.376-4.075-2.112-6.368-2.112h-10.955v-32c0-16.917,10.048-32.245,25.611-39.061
			c3.883-1.696,6.389-5.536,6.389-9.771v-36.501H320v36.501c0,4.235,2.507,8.075,6.389,9.771C341.952,255.755,352,271.083,352,288
			V320z"/>
	</g>
</g>
</svg>