<?xml version="1.0" encoding="iso-8859-1"?>
<!-- Uploaded to: SVG Repo, www.svgrepo.com, Generator: SVG Repo Mixer Tools -->
<svg fill="#000000" height="800px" width="800px" version="1.1" id="Capa_1" xmlns="http://www.w3.org/2000/svg" xmlns:xlink="http://www.w3.org/1999/xlink" 
	 viewBox="0 0 451.988 451.988" xml:space="preserve">
<path id="XMLID_561_" d="M248.592,77.238c0,5.247-4.253,9.5-9.5,9.5h-74.956c-5.247,0-9.5-4.253-9.5-9.5s4.253-9.5,9.5-9.5h74.956
	C244.339,67.738,248.592,71.991,248.592,77.238z M450.676,429.794c-1.707,2.901-4.822,4.683-8.188,4.683h-133.58
	c-3.366,0-6.481-1.781-8.188-4.684c-1.707-2.901-1.751-6.489-0.115-9.432l18.764-33.758c1.676-3.015,4.854-4.885,8.304-4.885h0.597
	v-25.33c0-5.247,4.253-9.5,9.5-9.5h0.288v-51.728c0-2.725-1.093-5.316-3.078-7.3c-1.856-1.857-4.238-2.934-6.76-3.07v0.629
	c0,5.247-4.253,9.5-9.5,9.5H182.034c-5.247,0-9.5-4.253-9.5-9.5v-0.629c-2.522,0.137-4.902,1.213-6.752,3.064
	c-1.991,1.989-3.085,4.582-3.085,7.306v51.728h0.286c5.247,0,9.5,4.253,9.5,9.5v25.33h0.598c3.449,0,6.628,1.869,8.304,4.885
	l18.765,33.758c1.636,2.942,1.592,6.53-0.115,9.432c-1.707,2.902-4.822,4.684-8.188,4.684H58.264c-3.366,0-6.481-1.781-8.188-4.684
	c-1.707-2.901-1.751-6.489-0.115-9.432l18.764-33.758c1.676-3.015,4.854-4.885,8.304-4.885h0.598v-25.33c0-5.247,4.253-9.5,9.5-9.5
	h0.287v-51.728c0-22.826,8.927-44.324,25.136-60.533c16.077-16.078,37.36-24.99,59.985-25.132v-0.646c0-5.247,4.253-9.5,9.5-9.5
	h136.685c5.247,0,9.5,4.253,9.5,9.5v0.646c22.625,0.142,43.91,9.054,59.987,25.133c16.208,16.21,25.134,37.707,25.134,60.532v51.728
	h0.287c5.247,0,9.5,4.253,9.5,9.5v25.33h0.601c3.449,0,6.628,1.87,8.304,4.885l18.761,33.758
	C452.427,423.304,452.383,426.892,450.676,429.794z M96.625,381.719h56.857v-15.83H96.625V381.719z M82.617,400.719l-8.203,14.758
	h101.282l-8.203-14.758H82.617z M172.534,228.496c-17.549,0.142-34.062,7.078-46.55,19.567
	c-12.621,12.62-19.571,29.347-19.571,47.098v51.728h37.284v-51.728c0-7.8,3.071-15.166,8.648-20.74
	c5.438-5.441,12.59-8.499,20.188-8.64V228.496z M309.218,218.35H191.534v57.569h117.685V218.35z M348.411,274.425
	c5.572,5.566,8.645,12.934,8.645,20.736v51.728h37.283v-51.728c0-17.75-6.95-34.477-19.569-47.099
	c-12.489-12.489-29.001-19.425-46.552-19.566v37.285C335.816,265.921,342.967,268.978,348.411,274.425z M347.268,365.889v15.83
	h56.858v-15.83H347.268z M426.339,415.476l-8.201-14.758H333.26l-8.203,14.758H426.339z M75.368,252.64H9.5
	c-3.366,0-6.481-1.781-8.188-4.683c-1.707-2.902-1.751-6.49-0.115-9.433l18.763-33.759c1.676-3.015,4.854-4.885,8.304-4.885h0.6
	v-25.33c0-5.247,4.253-9.5,9.5-9.5h0.287v-51.727c0-22.825,8.927-44.323,25.136-60.534c16.081-16.079,37.363-24.991,59.985-25.133
	v-0.646c0-5.247,4.253-9.5,9.5-9.5h136.686c5.247,0,9.5,4.253,9.5,9.5v0.646c22.623,0.142,43.907,9.054,59.985,25.132
	c16.209,16.211,25.135,37.71,25.135,60.535v51.727h0.285c5.247,0,9.5,4.253,9.5,9.5v15.835c0,5.247-4.253,9.5-9.5,9.5
	s-9.5-4.253-9.5-9.5v-6.335h-66.355c-5.247,0-9.5-4.253-9.5-9.5s4.253-9.5,9.5-9.5h0.286v-51.727c0-2.725-1.094-5.318-3.079-7.304
	c-1.854-1.854-4.235-2.932-6.757-3.068v0.629c0,5.247-4.253,9.5-9.5,9.5H133.271c-5.247,0-9.5-4.253-9.5-9.5v-0.629
	c-2.521,0.137-4.901,1.214-6.755,3.068c-1.988,1.987-3.082,4.58-3.082,7.304v51.727h0.284c5.247,0,9.5,4.253,9.5,9.5v11.086
	c0,5.247-4.253,9.5-9.5,9.5s-9.5-4.253-9.5-9.5v-1.586H47.863v15.83h51.286c5.247,0,9.5,4.253,9.5,9.5s-4.253,9.5-9.5,9.5H33.852
	l-8.203,14.759h49.719c5.247,0,9.5,4.253,9.5,9.5S80.615,252.64,75.368,252.64z M279.456,83.942
	c7.596,0.141,14.748,3.197,20.193,8.644c5.573,5.573,8.643,12.938,8.643,20.738v51.727h37.284v-51.727
	c0-17.751-6.95-34.479-19.57-47.101c-12.489-12.488-29.002-19.425-46.55-19.566V83.942z M142.771,94.081h117.686V36.512H142.771
	V94.081z M57.65,165.051h37.284v-51.727c0-7.799,3.071-15.165,8.647-20.74c5.445-5.444,12.596-8.501,20.189-8.642V46.657
	c-17.547,0.142-34.06,7.078-46.551,19.567c-12.62,12.622-19.57,29.35-19.57,47.1V165.051z M212.899,268.575h74.954
	c5.247,0,9.5-4.253,9.5-9.5c0-5.247-4.253-9.5-9.5-9.5h-74.954c-5.247,0-9.5,4.253-9.5,9.5
	C203.399,264.322,207.652,268.575,212.899,268.575z"/>
</svg>